<svg id="Layer_1" data-name="Layer 1" xmlns="http://www.w3.org/2000/svg" viewBox="0 0 1077.9 121.41"><path d="M632.34,59.13l4-4.05V25.7l-4-4.05h-10.2V59.13ZM594.34.54h54.19L664.19,16.2V64.59L648.53,80.25H622.14V122h-27.8Z" transform="translate(-2.05 -0.54)"/><polygon points="675.68 105.75 675.68 0 703.48 0 703.48 93.61 707.53 97.65 712.81 97.65 716.86 93.61 716.86 0 744.66 0 744.66 105.75 729 121.41 691.34 121.41 675.68 105.75"/><path d="M803.36,53.32l4-4V25.7l-4-4.05h-12V53.32ZM763.6.54h55.95L835.21,16.2V59.13L823.07,71.27,837.15,122H809L796.5,74.44h-5.1V122H763.6Z" transform="translate(-2.05 -0.54)"/><path d="M887.47,99.07l4-4V27.46l-4-4.05h-9.85V99.07ZM849.81.54h53.84L919.32,16.2v90.09L903.65,122H849.81Z" transform="translate(-2.05 -0.54)"/><polygon points="933.45 105.75 933.45 0 961.25 0 961.25 93.61 965.29 97.65 970.57 97.65 974.62 93.61 974.62 0 1002.42 0 1002.42 105.75 986.76 121.41 949.11 121.41 933.45 105.75"/><polygon points="1019.49 0 1077.55 0 1077.55 24.63 1047.29 24.63 1047.29 46.98 1074.38 46.98 1074.38 71.61 1047.29 71.61 1047.29 96.78 1077.9 96.78 1077.9 121.41 1019.49 121.41 1019.49 0"/><path d="M43.64,55.61l-4,4H29.55V22.55H39.64l4,4ZM2.05,1.67V121.73h27.5V80.49h26.1L71.13,65V17.16L55.65,1.67Z" transform="translate(-2.05 -0.54)"/><path d="M126.38,49.87l-4,4H110.55V22.55h11.83l4,4Zm27.5,9.74V17.16L138.39,1.67H83.06V121.73h27.49v-47h5l12.36,47h27.84L141.87,71.62Z" transform="translate(-2.05 -0.54)"/><polygon points="164.39 105.71 179.88 121.19 217.99 121.19 233.47 105.71 233.47 69.8 207.05 69.8 207.05 99.21 191.12 99.21 191.12 69.8 164.59 69.8 164.39 105.71"/><polygon points="164.59 53.84 191.12 53.84 191.12 23.08 207.05 23.08 207.05 53.84 233.47 53.84 233.47 16.62 217.99 1.13 179.88 1.13 164.39 16.62 164.59 53.84"/><polygon points="242.78 26.36 262.97 26.36 262.97 121.19 290.46 121.19 290.46 26.36 310.65 26.36 310.65 1.13 242.78 1.13 242.78 26.36"/><polygon points="349.15 71.95 375.94 71.95 375.94 47.59 349.15 47.59 349.15 25.49 379.08 25.49 379.08 1.13 321.65 1.13 321.65 121.19 379.42 121.19 379.42 96.83 349.15 96.83 349.15 71.95"/><polygon points="407.66 1.13 392.17 16.62 392.17 105.71 407.66 121.2 444.02 121.2 459.51 105.71 459.51 78.91 432.02 78.91 432.02 95.44 428.02 99.44 423.67 99.44 419.67 95.44 419.67 27.75 423.67 23.75 428.02 23.75 432.02 27.75 432.02 43.41 459.51 43.41 459.51 16.62 444.02 1.13 407.66 1.13"/><polygon points="468.08 1.13 468.08 26.36 488.27 26.36 488.27 121.2 515.76 121.2 515.76 26.36 535.95 26.36 535.95 1.13 468.08 1.13"/></svg>